<svg width="24" height="24" viewBox="0 0 24 24" fill="none" xmlns="http://www.w3.org/2000/svg">
<path d="M9.74844 10.9761C9.96205 10.8214 10.0652 10.5661 10.0652 10.215C10.0725 10.048 10.0382 9.88348 9.96451 9.73371C9.89821 9.61339 9.8 9.51272 9.67969 9.44152C9.55494 9.36587 9.41639 9.31579 9.2721 9.2942C9.11495 9.26473 8.95536 9.25 8.79821 9.25246H7.0721V11.2094H8.94062C9.26228 11.2118 9.53482 11.1333 9.74844 10.9761ZM10.0382 12.744C9.79754 12.5598 9.47589 12.469 9.07567 12.469H7.06719V14.777H9.03638C9.22054 14.777 9.38995 14.7598 9.55446 14.7254C9.71011 14.695 9.85848 14.635 9.99152 14.5487C10.1167 14.4676 10.2174 14.3571 10.2935 14.2147C10.3672 14.0723 10.404 13.8906 10.404 13.6721C10.404 13.2375 10.2812 12.9306 10.0382 12.744ZM12 1C5.92545 1 1 5.92545 1 12C1 18.0746 5.92545 23 12 23C18.0746 23 23 18.0746 23 12C23 5.92545 18.0746 1 12 1ZM14.1239 8.04442H17.5221V8.87187H14.1239V8.04442ZM12 14.8679C11.8411 15.1696 11.6141 15.4302 11.3371 15.629C11.0473 15.8304 10.7257 15.9777 10.3844 16.0636C10.0273 16.1593 9.65895 16.2064 9.28929 16.2036H5.22321V7.82835H9.17634C9.57656 7.82835 9.93996 7.86518 10.2714 7.93393C10.6004 8.00268 10.8804 8.12054 11.1161 8.28013C11.3493 8.43973 11.5335 8.65335 11.6636 8.91853C11.7913 9.18125 11.8576 9.51027 11.8576 9.90067C11.8576 10.323 11.7618 10.6717 11.5703 10.954C11.3763 11.2364 11.0964 11.4647 10.7158 11.644C11.2339 11.7913 11.6145 12.054 11.865 12.4223C12.1203 12.7955 12.2455 13.2424 12.2455 13.7679C12.2455 14.1951 12.1645 14.5609 12 14.8679ZM18.8455 13.5714H14.4652C14.4652 14.0478 14.6297 14.5045 14.8777 14.75C15.1281 14.9931 15.4866 15.1158 15.9556 15.1158C16.2944 15.1158 16.5817 15.0299 16.8272 14.8605C17.0703 14.6911 17.2176 14.5118 17.2717 14.3252H18.74C18.5042 15.0545 18.1458 15.575 17.6596 15.8893C17.1783 16.2036 16.5891 16.3607 15.904 16.3607C15.4252 16.3607 14.9955 16.2821 14.61 16.1324C14.2393 15.9875 13.9054 15.7665 13.6304 15.4817C13.3592 15.1892 13.1496 14.8452 13.0141 14.4701C12.8643 14.0551 12.7906 13.6181 12.7955 13.1786C12.7955 12.7243 12.8717 12.302 13.019 11.9092C13.3013 11.1455 13.8882 10.5342 14.6371 10.2174C15.0373 10.0504 15.467 9.96696 15.9016 9.97187C16.4172 9.97187 16.8641 10.0701 17.252 10.2714C17.6255 10.4637 17.9498 10.7392 18.1998 11.0768C18.4478 11.4132 18.6221 11.7962 18.7326 12.2283C18.8382 12.6531 18.875 13.1 18.8455 13.5714ZM15.85 11.2241C15.5848 11.2241 15.3614 11.2708 15.1895 11.3616C15.0176 11.4525 14.8752 11.5654 14.7672 11.6955C14.6643 11.8212 14.5883 11.9666 14.5437 12.1228C14.5045 12.2529 14.4775 12.3855 14.4676 12.5205H17.1808C17.1415 12.0958 16.9942 11.7815 16.7978 11.5605C16.5915 11.342 16.26 11.2241 15.85 11.2241Z" fill="#D6D5D4"/>
</svg>
