<svg width="50" height="50" viewBox="0 0 50 50" fill="none" xmlns="http://www.w3.org/2000/svg">
<path d="M25 50C38.8 50 50 38.8 50 25C50 11.2 38.8 0 25 0C11.2 0 0 11.2 0 25C0 38.8 11.2 50 25 50ZM14.925 23.675L22.425 16.175C22.8 15.8 23.275 15.625 23.75 15.625C24.225 15.625 24.7 15.8 25.075 16.175C25.8 16.9 25.8 18.1 25.075 18.825L20.775 23.125H33.75C34.775 23.125 35.625 23.975 35.625 25C35.625 26.025 34.775 26.875 33.75 26.875H20.775L25.075 31.175C25.8 31.9 25.8 33.1 25.075 33.825C24.35 34.55 23.15 34.55 22.425 33.825L14.925 26.325C14.2 25.6 14.2 24.4 14.925 23.675Z" fill="#EF7D00"/>
</svg>
