<svg width="57" height="57" viewBox="0 0 57 57" fill="none" xmlns="http://www.w3.org/2000/svg">
<path d="M28.5 4.75C15.39 4.75 4.75 15.39 4.75 28.5C4.75 41.61 15.39 52.25 28.5 52.25C41.61 52.25 52.25 41.61 52.25 28.5C52.25 15.39 41.61 4.75 28.5 4.75ZM36.8838 28.5713C36.5275 28.9275 36.0763 29.0938 35.625 29.0938C35.1738 29.0938 34.7225 28.9275 34.3663 28.5713L30.2813 24.4863V36.8125C30.2813 37.7863 29.4738 38.5938 28.5 38.5938C27.5263 38.5938 26.7188 37.7863 26.7188 36.8125V24.4863L22.6338 28.5713C21.945 29.26 20.805 29.26 20.1163 28.5713C19.4275 27.8825 19.4275 26.7425 20.1163 26.0538L27.2413 18.9288C27.93 18.24 29.07 18.24 29.7588 18.9288L36.8838 26.0538C37.5725 26.7425 37.5725 27.8825 36.8838 28.5713Z" fill="#FBE2C6"/>
</svg>
