<svg width="30" height="30" viewBox="0 0 30 30" fill="none" xmlns="http://www.w3.org/2000/svg">
<g id="vuesax/bold/arrow-right">
<g id="arrow-right">
<path id="Vector" d="M22.5 18.3375L22.5 11.6625C22.5 7.51253 19.5625 5.82503 15.975 7.88753L14.375 8.81253C13.9875 9.03753 13.75 9.45003 13.75 9.90003L13.75 20.1C13.75 20.55 13.9875 20.9625 14.375 21.1875L15.975 22.1125C19.5625 24.175 22.5 22.4875 22.5 18.3375Z" fill="#FFFDFB"/>
<path id="Vector_2" d="M12.5 19.0125L12.5 10.975C12.5 10.4875 11.975 10.1875 11.5625 10.4375L10.1875 11.2375C6.6 13.3 6.6 16.7 10.1875 18.7625L11.5625 19.5625C11.975 19.8 12.5 19.5 12.5 19.0125Z" fill="#FFFDFB"/>
</g>
</g>
</svg>
