<svg width="24" height="97" viewBox="0 0 24 97" fill="none" xmlns="http://www.w3.org/2000/svg">
<path d="M12 0C5.37321 0 0 5.37321 0 12C0 18.6268 5.37321 24 12 24C18.6268 24 24 18.6268 24 12C24 5.37321 18.6268 0 12 0ZM17.767 9.04554C17.775 9.17143 17.775 9.30268 17.775 9.43125C17.775 13.3634 14.7804 17.8929 9.30804 17.8929C7.62054 17.8929 6.05625 17.4027 4.73839 16.5589C4.97946 16.5857 5.20982 16.5964 5.45625 16.5964C6.84911 16.5964 8.12946 16.125 9.15 15.3268C7.84286 15.3 6.74464 14.4429 6.36964 13.2643C6.82768 13.3313 7.24018 13.3313 7.71161 13.2107C7.03855 13.074 6.43359 12.7084 5.99951 12.1762C5.56542 11.644 5.32898 10.9779 5.33036 10.2911V10.2536C5.72411 10.4759 6.1875 10.6125 6.67232 10.6313C6.26476 10.3596 5.93051 9.99164 5.69923 9.5599C5.46794 9.12817 5.34676 8.64603 5.34643 8.15625C5.34643 7.60179 5.49107 7.09554 5.75089 6.65625C6.49795 7.5759 7.43017 8.32806 8.48696 8.86384C9.54375 9.39961 10.7014 9.70702 11.8848 9.76607C11.4643 7.74375 12.975 6.10714 14.7911 6.10714C15.6482 6.10714 16.4196 6.46607 16.9634 7.04464C17.6357 6.91875 18.2786 6.66696 18.8518 6.32946C18.6295 7.01786 18.1634 7.59911 17.5446 7.96607C18.1446 7.90179 18.7232 7.73571 19.2589 7.50268C18.8545 8.09732 18.3482 8.625 17.767 9.04554Z" fill="url(#paint0_linear_5004_4433)"/>
<path d="M13.2336 36.416C14.5835 36.4196 15.2687 36.4268 15.8603 36.4436L16.0931 36.452C16.3619 36.4616 16.627 36.4736 16.9474 36.488C18.2242 36.548 19.0953 36.7496 19.8597 37.046C20.6516 37.3508 21.3188 37.7636 21.986 38.4296C22.5961 39.0294 23.0683 39.755 23.3695 40.5559C23.6659 41.3203 23.8675 42.1915 23.9275 43.4695C23.9419 43.7886 23.9539 44.0538 23.9635 44.3238L23.9707 44.5566C23.9887 45.147 23.9959 45.8322 23.9983 47.1822L23.9995 48.0773V49.6493C24.0024 50.5246 23.9932 51.3998 23.9719 52.2748L23.9647 52.5076C23.9551 52.7776 23.9431 53.0428 23.9287 53.362C23.8687 54.64 23.6647 55.51 23.3695 56.2755C23.0691 57.0769 22.5969 57.8027 21.986 58.4019C21.386 59.0119 20.6604 59.484 19.8597 59.7855C19.0953 60.0819 18.2242 60.2835 16.9474 60.3435C16.6627 60.3569 16.3779 60.3689 16.0931 60.3795L15.8603 60.3867C15.2687 60.4035 14.5835 60.4119 13.2336 60.4143L12.3385 60.4155H10.7677C9.8921 60.4185 9.01646 60.4093 8.14108 60.3879L7.90829 60.3807C7.62343 60.3699 7.33864 60.3575 7.05393 60.3435C5.7772 60.2835 4.90604 60.0819 4.14048 59.7855C3.33972 59.4847 2.61442 59.0125 2.01539 58.4019C1.40467 57.8023 0.932114 57.0766 0.63066 56.2755C0.334275 55.5112 0.132686 54.64 0.0726886 53.362C0.0593199 53.0773 0.0473204 52.7925 0.0366905 52.5076L0.0306909 52.2748C0.00857853 51.3998 -0.00142203 50.5246 0.000692365 49.6493V47.1822C-0.00265662 46.3069 0.00614386 45.4316 0.0270911 44.5566L0.0354906 44.3238C0.0450901 44.0538 0.0570895 43.7886 0.0714888 43.4695C0.131486 42.1915 0.333075 41.3215 0.62946 40.5559C0.930781 39.7542 1.40428 39.0284 2.01659 38.4296C2.61547 37.8194 3.34029 37.3472 4.14048 37.046C4.90604 36.7496 5.776 36.548 7.05393 36.488C7.37311 36.4736 7.6395 36.4616 7.90829 36.452L8.14108 36.4448C9.01606 36.4235 9.8913 36.4143 10.7665 36.4172L13.2336 36.416ZM12.0001 42.4159C10.4089 42.4159 8.88281 43.048 7.75765 44.1732C6.63249 45.2984 6.00039 46.8245 6.00039 48.4157C6.00039 50.007 6.63249 51.5331 7.75765 52.6583C8.88281 53.7835 10.4089 54.4156 12.0001 54.4156C13.5913 54.4156 15.1173 53.7835 16.2425 52.6583C17.3677 51.5331 17.9998 50.007 17.9998 48.4157C17.9998 46.8245 17.3677 45.2984 16.2425 44.1732C15.1173 43.048 13.5913 42.4159 12.0001 42.4159ZM12.0001 44.8158C12.4728 44.8157 12.9409 44.9088 13.3777 45.0896C13.8145 45.2705 14.2114 45.5356 14.5457 45.8698C14.88 46.204 15.1453 46.6008 15.3262 47.0376C15.5072 47.4743 15.6004 47.9424 15.6005 48.4151C15.6006 48.8879 15.5075 49.356 15.3267 49.7928C15.1459 50.2296 14.8808 50.6265 14.5466 50.9608C14.2123 51.2952 13.8155 51.5604 13.3788 51.7414C12.9421 51.9224 12.474 52.0156 12.0013 52.0157C11.0465 52.0157 10.1309 51.6364 9.45582 50.9613C8.78073 50.2861 8.40146 49.3705 8.40146 48.4157C8.40146 47.461 8.78073 46.5453 9.45582 45.8702C10.1309 45.1951 11.0465 44.8158 12.0013 44.8158M18.301 40.6159C17.9031 40.6159 17.5216 40.7739 17.2403 41.0552C16.9591 41.3365 16.801 41.7181 16.801 42.1159C16.801 42.5137 16.9591 42.8952 17.2403 43.1765C17.5216 43.4578 17.9031 43.6158 18.301 43.6158C18.6988 43.6158 19.0803 43.4578 19.3616 43.1765C19.6429 42.8952 19.8009 42.5137 19.8009 42.1159C19.8009 41.7181 19.6429 41.3365 19.3616 41.0552C19.0803 40.7739 18.6988 40.6159 18.301 40.6159Z" fill="url(#paint1_linear_5004_4433)"/>
<path d="M24 84.8621C24 78.2215 18.624 72.832 12 72.832C5.376 72.832 0 78.2215 0 84.8621C0 90.6847 4.128 95.5328 9.6 96.6516V88.4711H7.2V84.8621H9.6V81.8546C9.6 79.5328 11.484 77.6441 13.8 77.6441H16.8V81.2531H14.4C13.74 81.2531 13.2 81.7944 13.2 82.4561V84.8621H16.8V88.4711H13.2V96.832C19.26 96.2305 24 91.1057 24 84.8621Z" fill="url(#paint2_linear_5004_4433)"/>
<defs>
<linearGradient id="paint0_linear_5004_4433" x1="12" y1="0.114286" x2="12" y2="30.2857" gradientUnits="userSpaceOnUse">
<stop offset="0.45" stop-color="#EF7D00"/>
<stop offset="1" stop-color="#F39A39" stop-opacity="0.35"/>
</linearGradient>
<linearGradient id="paint1_linear_5004_4433" x1="12.0001" y1="36.416" x2="12.0001" y2="68.3353" gradientUnits="userSpaceOnUse">
<stop offset="0.45" stop-color="#EF7D00"/>
<stop offset="1" stop-color="#F39A39" stop-opacity="0.35"/>
</linearGradient>
<linearGradient id="paint2_linear_5004_4433" x1="12.0001" y1="72.832" x2="12.0001" y2="103.87" gradientUnits="userSpaceOnUse">
<stop offset="0.45" stop-color="#EF7D00"/>
<stop offset="1" stop-color="#F39A39" stop-opacity="0.35"/>
</linearGradient>
</defs>
</svg>
