<svg width="24" height="24" viewBox="0 0 24 24" fill="none" xmlns="http://www.w3.org/2000/svg">
<path d="M13.7716 12.2662C13.7649 12.6146 13.655 12.9533 13.4557 13.2392C13.2564 13.5251 12.9766 13.7454 12.652 13.8721C12.3273 13.9989 11.9723 14.0264 11.632 13.9511C11.2917 13.8759 10.9814 13.7013 10.7404 13.4495C10.4995 13.1977 10.3387 12.8801 10.2784 12.5368C10.2182 12.1935 10.2612 11.8401 10.4021 11.5213C10.543 11.2025 10.7753 10.9327 11.0697 10.7461C11.3641 10.5595 11.7072 10.4645 12.0556 10.4732C12.5186 10.4903 12.9567 10.6871 13.277 11.0219C13.5974 11.3566 13.7748 11.8029 13.7716 12.2662Z" fill="#D6D5D4"/>
<path d="M15.0395 6.75586H9.07208C8.4816 6.75586 7.91532 6.99042 7.49779 7.40795C7.08027 7.82547 6.8457 8.39176 6.8457 8.98223V15.0839C6.8457 15.3762 6.90329 15.6657 7.01518 15.9359C7.12706 16.206 7.29105 16.4514 7.49779 16.6581C7.70453 16.8649 7.94996 17.0289 8.22008 17.1408C8.4902 17.2526 8.7797 17.3102 9.07208 17.3102H15.0395C15.3319 17.3102 15.6214 17.2526 15.8915 17.1408C16.1616 17.0289 16.407 16.8649 16.6138 16.6581C16.8205 16.4514 16.9845 16.206 17.0964 15.9359C17.2083 15.6657 17.2659 15.3762 17.2659 15.0839V8.99323C17.267 8.70002 17.2103 8.40946 17.099 8.1382C16.9876 7.86694 16.8239 7.62033 16.617 7.41248C16.4102 7.20463 16.1644 7.03965 15.8937 6.92697C15.623 6.81429 15.3327 6.75615 15.0395 6.75586ZM12.0552 15.2511C11.4645 15.2644 10.8832 15.1014 10.3855 14.7829C9.88781 14.4644 9.49629 14.0049 9.26093 13.4629C9.02557 12.9209 8.95703 12.3211 9.06406 11.74C9.1711 11.1589 9.44885 10.6228 9.86187 10.2003C10.2749 9.77771 10.8044 9.48779 11.383 9.36753C11.9615 9.24726 12.5627 9.30209 13.1099 9.52502C13.6571 9.74795 14.1255 10.1289 14.4553 10.6192C14.785 11.1095 14.9613 11.6869 14.9614 12.2778C14.9659 12.6639 14.8943 13.047 14.7507 13.4054C14.607 13.7638 14.3942 14.0904 14.1243 14.3665C13.8544 14.6426 13.5328 14.8629 13.1778 15.0146C12.8228 15.1664 12.4413 15.2467 12.0552 15.2511ZM15.2848 9.30563C15.2122 9.30564 15.1404 9.29117 15.0734 9.26307C15.0065 9.23497 14.9459 9.19379 14.8951 9.14196C14.8443 9.09012 14.8043 9.02867 14.7775 8.9612C14.7508 8.89373 14.7377 8.8216 14.7392 8.74903C14.7392 8.60142 14.7978 8.45985 14.9022 8.35546C15.0066 8.25108 15.1482 8.19244 15.2958 8.19244C15.4434 8.19244 15.585 8.25108 15.6894 8.35546C15.7937 8.45985 15.8524 8.60142 15.8524 8.74903C15.8546 8.82761 15.8398 8.90574 15.8089 8.97806C15.7781 9.05038 15.7321 9.11518 15.6739 9.16804C15.6157 9.2209 15.5468 9.26056 15.4718 9.2843C15.3969 9.30805 15.3177 9.31533 15.2397 9.30563H15.2848Z" fill="#D6D5D4"/>
<path d="M12.055 1.00014C9.13766 0.985551 6.334 2.13047 4.26081 4.18303C2.18762 6.23559 1.01472 9.02766 1.00014 11.945C0.985551 14.8623 2.13047 17.666 4.18303 19.7392C6.23559 21.8124 9.02766 22.9853 11.945 22.9999C13.3895 23.0071 14.8213 22.7297 16.1587 22.1836C17.496 21.6375 18.7127 20.8333 19.7392 19.817C20.7657 18.8006 21.582 17.5921 22.1415 16.2603C22.701 14.9285 22.9926 13.4995 22.9999 12.055C23.0071 10.6105 22.7297 9.17868 22.1836 7.84135C21.6375 6.50402 20.8333 5.28735 19.817 4.26081C18.8006 3.23427 17.5921 2.41797 16.2603 1.8585C14.9285 1.29903 13.4995 1.00736 12.055 1.00014ZM18.7352 14.9722C18.7383 15.4657 18.6434 15.9548 18.456 16.4114C18.2686 16.8679 17.9924 17.2827 17.6435 17.6317C17.2946 17.9807 16.8799 18.257 16.4234 18.4445C15.9669 18.6321 15.4778 18.7271 14.9843 18.7242H9.12794C8.63453 18.727 8.14547 18.6319 7.68907 18.4444C7.23267 18.2568 6.818 17.9807 6.46905 17.6318C6.1201 17.283 5.84381 16.8684 5.65616 16.412C5.46852 15.9557 5.37326 15.4667 5.37588 14.9733V9.11584C5.37282 8.62235 5.46774 8.13316 5.65514 7.67662C5.84255 7.22009 6.1187 6.8053 6.46761 6.45629C6.81652 6.10728 7.23123 5.831 7.68771 5.64346C8.14418 5.45593 8.63335 5.36086 9.12684 5.36378H14.9843C15.4777 5.36086 15.9667 5.45589 16.4231 5.64336C16.8795 5.83083 17.2942 6.10701 17.6431 6.4559C17.992 6.80479 18.2682 7.21946 18.4556 7.67586C18.6431 8.13227 18.7381 8.62134 18.7352 9.11474V14.9722Z" fill="#D6D5D4"/>
</svg>
