<svg width="24" height="25" viewBox="0 0 24 25" fill="none" xmlns="http://www.w3.org/2000/svg">
<path d="M13.2336 0.416016C14.5835 0.419616 15.2687 0.426815 15.8603 0.443615L16.0931 0.452015C16.3619 0.461615 16.627 0.473614 16.9474 0.488014C18.2242 0.548012 19.0953 0.749608 19.8597 1.046C20.6516 1.35079 21.3188 1.76358 21.986 2.42957C22.5961 3.02943 23.0683 3.75504 23.3695 4.55592C23.6659 5.3203 23.8675 6.19148 23.9275 7.46945C23.9419 7.78864 23.9539 8.05384 23.9635 8.32383L23.9707 8.55663C23.9887 9.14701 23.9959 9.8322 23.9983 11.1822L23.9995 12.0773V13.6493C24.0024 14.5246 23.9932 15.3998 23.9719 16.2748L23.9647 16.5076C23.9551 16.7776 23.9431 17.0428 23.9287 17.362C23.8687 18.64 23.6647 19.51 23.3695 20.2755C23.0691 21.0769 22.5969 21.8027 21.986 22.4019C21.386 23.0119 20.6604 23.484 19.8597 23.7855C19.0953 24.0819 18.2242 24.2835 16.9474 24.3435C16.6627 24.3569 16.3779 24.3689 16.0931 24.3795L15.8603 24.3867C15.2687 24.4035 14.5835 24.4119 13.2336 24.4143L12.3385 24.4155H10.7677C9.8921 24.4185 9.01646 24.4093 8.14108 24.3879L7.90829 24.3807C7.62343 24.3699 7.33864 24.3575 7.05393 24.3435C5.7772 24.2835 4.90604 24.0819 4.14048 23.7855C3.33972 23.4847 2.61442 23.0125 2.01539 22.4019C1.40467 21.8023 0.932114 21.0766 0.63066 20.2755C0.334275 19.5112 0.132686 18.64 0.0726886 17.362C0.0593199 17.0773 0.0473204 16.7925 0.0366905 16.5076L0.0306909 16.2748C0.00857853 15.3998 -0.00142203 14.5246 0.000692365 13.6493V11.1822C-0.00265662 10.3069 0.00614386 9.43164 0.0270911 8.55663L0.0354906 8.32383C0.0450901 8.05384 0.0570895 7.78864 0.0714888 7.46945C0.131486 6.19148 0.333075 5.3215 0.62946 4.55592C0.930781 3.75422 1.40428 3.02838 2.01659 2.42957C2.61547 1.81935 3.34029 1.34718 4.14048 1.046C4.90604 0.749608 5.776 0.548012 7.05393 0.488014C7.37311 0.473614 7.6395 0.461615 7.90829 0.452015L8.14108 0.444815C9.01606 0.423495 9.8913 0.414294 10.7665 0.417216L13.2336 0.416016ZM12.0001 6.41588C10.4089 6.41588 8.88281 7.048 7.75765 8.17319C6.63249 9.29839 6.00039 10.8245 6.00039 12.4157C6.00039 14.007 6.63249 15.5331 7.75765 16.6583C8.88281 17.7835 10.4089 18.4156 12.0001 18.4156C13.5913 18.4156 15.1173 17.7835 16.2425 16.6583C17.3677 15.5331 17.9998 14.007 17.9998 12.4157C17.9998 10.8245 17.3677 9.29839 16.2425 8.17319C15.1173 7.048 13.5913 6.41588 12.0001 6.41588ZM12.0001 8.81582C12.4728 8.81574 12.9409 8.90878 13.3777 9.08962C13.8145 9.27046 14.2114 9.53556 14.5457 9.86979C14.88 10.204 15.1453 10.6008 15.3262 11.0376C15.5072 11.4743 15.6004 11.9424 15.6005 12.4151C15.6006 12.8879 15.5075 13.356 15.3267 13.7928C15.1459 14.2296 14.8808 14.6265 14.5466 14.9608C14.2123 15.2952 13.8155 15.5604 13.3788 15.7414C12.9421 15.9224 12.474 16.0156 12.0013 16.0157C11.0465 16.0157 10.1309 15.6364 9.45582 14.9613C8.78073 14.2861 8.40146 13.3705 8.40146 12.4157C8.40146 11.461 8.78073 10.5453 9.45582 9.87021C10.1309 9.19509 11.0465 8.81582 12.0013 8.81582M18.301 4.61592C17.9031 4.61592 17.5216 4.77395 17.2403 5.05525C16.9591 5.33654 16.801 5.71807 16.801 6.11588C16.801 6.5137 16.9591 6.89522 17.2403 7.17652C17.5216 7.45782 17.9031 7.61585 18.301 7.61585C18.6988 7.61585 19.0803 7.45782 19.3616 7.17652C19.6429 6.89522 19.8009 6.5137 19.8009 6.11588C19.8009 5.71807 19.6429 5.33654 19.3616 5.05525C19.0803 4.77395 18.6988 4.61592 18.301 4.61592Z" fill="url(#paint0_linear_5004_4242)"/>
<defs>
<linearGradient id="paint0_linear_5004_4242" x1="12.0001" y1="0.416001" x2="12.0001" y2="32.3353" gradientUnits="userSpaceOnUse">
<stop offset="0.45" stopColor="#EF7D00"/>
<stop offset="1" stopColor="#F39A39" stop-opacity="0.35"/>
</linearGradient>
</defs>
</svg>
