<svg width="24" height="24" viewBox="0 0 24 24" fill="none" xmlns="http://www.w3.org/2000/svg">
<path d="M12 24C10.3484 24 8.79289 23.6844 7.33334 23.0533C5.87378 22.4222 4.60267 21.5644 3.52001 20.48C2.43734 19.3955 1.57956 18.1244 0.946674 16.6667C0.313785 15.2089 -0.00177031 13.6533 7.46965e-06 12C7.46965e-06 10.344 0.315563 8.78711 0.946674 7.32933C1.57778 5.87155 2.43556 4.60178 3.52001 3.52C4.60445 2.43822 5.87556 1.58089 7.33334 0.948001C8.79112 0.315113 10.3467 -0.000887018 12 1.87003e-06C13.656 1.87003e-06 15.2129 0.315557 16.6707 0.946668C18.1284 1.57778 19.3987 2.43556 20.4813 3.52C21.564 4.60444 22.4209 5.87422 23.052 7.32933C23.6831 8.78444 23.9991 10.3413 24 12C24 13.6516 23.6844 15.2071 23.0533 16.6667C22.4222 18.1262 21.5644 19.3973 20.48 20.48C19.3956 21.5627 18.1258 22.4204 16.6707 23.0533C15.2156 23.6862 13.6587 24.0018 12 24ZM12 22.6773C12.7822 21.672 13.4276 20.6849 13.936 19.716C14.4444 18.7471 14.8573 17.6627 15.1747 16.4627H8.82534C9.17734 17.7302 9.59867 18.8484 10.0893 19.8173C10.58 20.7862 11.2169 21.7395 12 22.6773ZM10.3027 22.4773C9.68045 21.744 9.11245 20.8373 8.59867 19.7573C8.08489 18.6782 7.70267 17.5795 7.452 16.4613H2.33734C3.10178 18.12 4.1849 19.48 5.58667 20.5413C6.98845 21.6027 8.56 22.248 10.3013 22.4773M13.696 22.4773C15.4364 22.248 17.008 21.6027 18.4107 20.5413C19.8133 19.48 20.8964 18.12 21.66 16.4613H16.548C16.2102 17.5964 15.7849 18.704 15.272 19.784C14.7582 20.8631 14.2329 21.7609 13.696 22.4773ZM1.79334 15.128H7.17334C7.07201 14.5813 7.00089 14.0484 6.96001 13.5293C6.91734 13.0102 6.89601 12.5004 6.89601 12C6.89601 11.4996 6.91689 10.9898 6.95867 10.4707C7.00045 9.95155 7.07156 9.41822 7.172 8.87066H1.79601C1.65112 9.33289 1.53778 9.83644 1.45601 10.3813C1.37423 10.9262 1.33334 11.4658 1.33334 12C1.33334 12.5342 1.37378 13.0738 1.45467 13.6187C1.53556 14.1636 1.6489 14.6667 1.79467 15.128M8.508 15.128H15.492C15.5933 14.5813 15.6644 14.0569 15.7053 13.5547C15.7462 13.0524 15.768 12.5342 15.7707 12C15.7733 11.4658 15.7524 10.9476 15.708 10.4453C15.6636 9.94311 15.5924 9.41866 15.4947 8.872H8.50667C8.40623 9.41866 8.33512 9.94311 8.29334 10.4453C8.25156 10.9476 8.23067 11.4658 8.23067 12C8.23067 12.5342 8.25156 13.0524 8.29334 13.5547C8.33512 14.0569 8.40756 14.5813 8.508 15.128ZM16.8267 15.128H22.2053C22.3502 14.6658 22.4636 14.1627 22.5453 13.6187C22.6271 13.0747 22.6676 12.5351 22.6667 12C22.6658 11.4649 22.6253 10.9253 22.5453 10.3813C22.4653 9.83733 22.352 9.33422 22.2053 8.872H16.8253C16.9267 9.41866 16.9978 9.95155 17.0387 10.4707C17.0813 10.9898 17.1027 11.4996 17.1027 12C17.1027 12.5004 17.0818 13.0102 17.04 13.5293C16.9982 14.0484 16.9271 14.5818 16.8267 15.1293M16.5493 7.53867H21.6613C20.88 5.84622 19.8098 4.48622 18.4507 3.45867C17.0907 2.43111 15.5062 1.77778 13.6973 1.49867C14.3196 2.31645 14.8791 3.25244 15.376 4.30667C15.8729 5.36089 16.264 6.43822 16.5493 7.53867ZM8.82534 7.53867H15.1747C14.8227 6.28711 14.3884 5.15556 13.872 4.144C13.3556 3.13244 12.7316 2.192 12 1.32267C11.2684 2.19111 10.6444 3.13156 10.128 4.144C9.61245 5.15556 9.17823 6.28711 8.82534 7.53867ZM2.33867 7.53867H7.45067C7.73689 6.43733 8.12801 5.36 8.62401 4.30667C9.12001 3.25333 9.67956 2.31689 10.3027 1.49733C8.47689 1.77733 6.88845 2.43511 5.53734 3.47067C4.18623 4.50622 3.11956 5.86178 2.33734 7.53733" fill="#EF7D00"/>
</svg>
