<svg width="24" height="24" viewBox="0 0 24 24" fill="none" xmlns="http://www.w3.org/2000/svg">
<g id="entypo-social:linkedin-with-circle">
<path id="Vector" d="M11.793 0.794922C5.71776 0.794922 0.792969 5.71971 0.792969 11.7949C0.792969 17.8701 5.71776 22.7949 11.793 22.7949C17.8682 22.7949 22.793 17.8701 22.793 11.7949C22.793 5.71971 17.8682 0.794922 11.793 0.794922ZM9.10026 16.3542H6.87276V9.18586H9.10026V16.3542ZM7.97276 8.30586C7.26922 8.30586 6.81432 7.80742 6.81432 7.19096C6.81432 6.5619 7.28297 6.07836 8.00141 6.07836C8.71984 6.07836 9.15984 6.5619 9.17359 7.19096C9.17359 7.80742 8.71984 8.30586 7.97276 8.30586ZM17.2357 16.3542H15.0082V12.3816C15.0082 11.4569 14.6851 10.829 13.8795 10.829C13.2642 10.829 12.8987 11.2541 12.7371 11.6632C12.6776 11.8087 12.6627 12.0149 12.6627 12.22V16.353H10.434V11.4718C10.434 10.5769 10.4054 9.82867 10.3756 9.18471H12.3109L12.4129 10.1804H12.4576C12.7509 9.71294 13.4693 9.02315 14.6713 9.02315C16.1368 9.02315 17.2357 10.0051 17.2357 12.1158V16.3542Z" fill="#D6D5D4"/>
</g>
</svg>
