<svg width="24" height="24" viewBox="0 0 24 24" fill="none" xmlns="http://www.w3.org/2000/svg">
<path d="M12.0138 1C5.94432 1 1.02441 5.9199 1.02441 11.9893C1.02441 16.6446 3.92163 20.6191 8.01032 22.2197C7.91338 21.3493 7.82744 20.0175 8.04607 19.0688C8.24683 18.2094 9.33517 13.6078 9.33517 13.6078C9.33517 13.6078 9.00585 12.945 9.00585 11.9749C9.00585 10.4493 9.89413 9.30732 10.9935 9.30732C11.9319 9.30732 12.3864 10.0093 12.3864 10.8542C12.3864 11.7961 11.7882 13.2069 11.4768 14.5139C11.2155 15.6064 12.0248 16.4974 13.1028 16.4974C15.0547 16.4974 16.5583 14.4383 16.5583 11.4661C16.5583 8.84462 14.6676 7.00412 11.9677 7.00412C8.84153 7.00412 7.00791 9.35339 7.00791 11.77C7.00791 12.7154 7.36955 13.7322 7.82469 14.2802C7.91407 14.3909 7.92507 14.4878 7.89963 14.5992C7.81713 14.9429 7.63081 15.6985 7.59506 15.8491C7.54487 16.0533 7.43761 16.0959 7.22654 15.9997C5.85838 15.3658 4.99554 13.3603 4.99554 11.7418C4.99554 8.27948 7.51668 5.09213 12.2578 5.09213C16.0681 5.09213 19.0327 7.81334 19.0327 11.4373C19.0327 15.2296 16.6442 18.2802 13.3214 18.2802C12.2076 18.2802 11.1619 17.7033 10.7934 17.0158L10.1059 19.6263C9.85907 20.5827 9.18529 21.7817 8.73084 22.5091C9.76213 22.824 10.847 23 11.9856 23C18.0447 23 22.9715 18.0835 22.9715 12.0107C22.9715 5.94122 18.044 1.02475 11.9856 1.02475L12.0138 1Z" fill="#D6D5D4"/>
</svg>
