<svg width="42" height="43" viewBox="0 0 42 43" fill="none" xmlns="http://www.w3.org/2000/svg">
<g id="vuesax/bold/quote-down">
<g id="quote-down">
<path id="Vector" d="M25.5415 24.1878L31.1035 26.7814C28.5583 32.3351 27.0632 32.7493 22.7677 33.2C22.2714 33.2573 21.9206 33.6999 21.9793 34.2181C22.0434 34.7242 22.4837 35.0883 22.9919 35.0366C28.0497 34.5084 30.0892 33.6985 33.1429 26.722L35.971 20.261C36.8682 18.2112 35.9439 15.7884 33.9278 14.8483L30.3701 13.1893C28.2829 12.216 26.0078 13.0748 25.0843 15.1845L23.5102 18.7806C22.5749 20.8848 23.4543 23.2145 25.5415 24.1878Z" fill="#EF7D00"/>
<path id="Vector_2" d="M12.7125 18.205L18.2744 20.7986C15.7292 26.3523 14.2342 26.7665 9.93865 27.2172C9.44236 27.2745 9.09153 27.7171 9.15032 28.2353C9.21435 28.7414 9.65472 29.1056 10.1629 29.0538C15.2206 28.5256 17.2601 27.7157 20.3139 20.7392L23.142 14.2782C24.0392 12.2285 23.1148 9.80558 21.0988 8.86548L17.5411 7.20648C15.442 6.22768 13.1669 7.08646 12.2434 9.19618L10.6694 12.7923C9.7459 14.902 10.6253 17.2318 12.7125 18.205Z" fill="#EF7D00"/>
</g>
</g>
</svg>
