<svg width="312" height="24" viewBox="0 0 312 24" fill="none" xmlns="http://www.w3.org/2000/svg">
<path d="M12.0138 1C5.94432 1 1.02441 5.9199 1.02441 11.9893C1.02441 16.6446 3.92163 20.6191 8.01032 22.2197C7.91338 21.3493 7.82744 20.0175 8.04607 19.0688C8.24683 18.2094 9.33517 13.6078 9.33517 13.6078C9.33517 13.6078 9.00585 12.945 9.00585 11.9749C9.00585 10.4493 9.89413 9.30732 10.9935 9.30732C11.9319 9.30732 12.3864 10.0093 12.3864 10.8542C12.3864 11.7961 11.7882 13.2069 11.4768 14.5139C11.2155 15.6064 12.0248 16.4974 13.1028 16.4974C15.0547 16.4974 16.5583 14.4383 16.5583 11.4661C16.5583 8.84462 14.6676 7.00412 11.9677 7.00412C8.84153 7.00412 7.00791 9.35339 7.00791 11.77C7.00791 12.7154 7.36955 13.7322 7.82469 14.2802C7.91407 14.3909 7.92507 14.4878 7.89963 14.5992C7.81713 14.9429 7.63081 15.6985 7.59506 15.8491C7.54487 16.0533 7.43761 16.0959 7.22654 15.9997C5.85838 15.3658 4.99554 13.3603 4.99554 11.7418C4.99554 8.27948 7.51668 5.09213 12.2578 5.09213C16.0681 5.09213 19.0327 7.81334 19.0327 11.4373C19.0327 15.2296 16.6442 18.2802 13.3214 18.2802C12.2076 18.2802 11.1619 17.7033 10.7934 17.0158L10.1059 19.6263C9.85907 20.5827 9.18529 21.7817 8.73084 22.5091C9.76213 22.824 10.847 23 11.9856 23C18.0447 23 22.9715 18.0835 22.9715 12.0107C22.9715 5.94122 18.044 1.02475 11.9856 1.02475L12.0138 1Z" fill="#D6D5D4"/>
<path d="M44 1C37.9254 1 33 5.92545 33 12C33 18.0746 37.9254 23 44 23C50.0746 23 55 18.0746 55 12C55 5.92545 50.0746 1 44 1ZM49.2864 9.29174C49.2937 9.40714 49.2937 9.52746 49.2937 9.64531C49.2937 13.2498 46.5487 17.4018 41.5324 17.4018C39.9855 17.4018 38.5516 16.9525 37.3435 16.179C37.5645 16.2036 37.7757 16.2134 38.0016 16.2134C39.2783 16.2134 40.452 15.7812 41.3875 15.0496C40.1893 15.025 39.1826 14.2393 38.8388 13.1589C39.2587 13.2203 39.6368 13.2203 40.069 13.1098C39.452 12.9845 38.8975 12.6494 38.4995 12.1615C38.1016 11.6736 37.8849 11.0631 37.8862 10.4335V10.3991C38.2471 10.6029 38.6719 10.7281 39.1163 10.7453C38.7427 10.4963 38.4363 10.159 38.2243 9.76324C38.0123 9.36749 37.9012 8.92553 37.9009 8.47656C37.9009 7.9683 38.0335 7.50424 38.2717 7.10156C38.9565 7.94458 39.811 8.63405 40.7797 9.12518C41.7484 9.61631 42.8097 9.8981 43.8944 9.95223C43.5089 8.09844 44.8938 6.59821 46.5585 6.59821C47.3442 6.59821 48.0513 6.92723 48.5498 7.45759C49.1661 7.34219 49.7554 7.11138 50.2808 6.80201C50.077 7.43304 49.6498 7.96585 49.0826 8.30223C49.6326 8.2433 50.1629 8.09107 50.654 7.87746C50.2833 8.42254 49.8192 8.90625 49.2864 9.29174Z" fill="#D6D5D4"/>
<path d="M86.9978 12.0654C86.9978 5.95293 82.0732 0.998047 75.9992 0.998047C69.9224 0.999422 64.9978 5.95293 64.9978 12.0668C64.9978 17.5895 69.0205 22.1677 74.2779 22.998V15.2646H71.487V12.0668H74.2806V9.62647C74.2806 6.85344 75.9236 5.32188 78.4354 5.32188C79.6397 5.32188 80.8977 5.53773 80.8977 5.53773V8.25989H79.5105C78.1453 8.25989 77.7191 9.11366 77.7191 9.98942V12.0654H80.7685L80.2818 15.2633H77.7177V22.9967C82.9751 22.1663 86.9978 17.5881 86.9978 12.0654Z" fill="#D6D5D4"/>
<path d="M108.002 1C114.077 1 119.002 5.9247 119.002 12C119.002 18.0753 114.077 23 108.002 23C106.058 23.0031 104.148 22.4887 102.469 21.5095L97.0064 23L98.4936 17.5352C97.5136 15.8554 96.9987 13.9448 97.002 12C97.002 5.9247 101.927 1 108.002 1ZM104.253 6.83L104.033 6.8388C103.891 6.84747 103.752 6.88489 103.624 6.9488C103.505 7.01637 103.396 7.10084 103.301 7.1996C103.169 7.3239 103.094 7.4317 103.013 7.5362C102.607 8.06519 102.388 8.71464 102.391 9.38199C102.393 9.92099 102.534 10.4457 102.754 10.9363C103.204 11.9285 103.944 12.979 104.921 13.9525C105.156 14.1868 105.387 14.4222 105.636 14.6411C106.85 15.7097 108.296 16.4803 109.86 16.8917L110.485 16.9874C110.688 16.9984 110.892 16.983 111.096 16.9731C111.417 16.9566 111.729 16.8698 112.013 16.719C112.157 16.6448 112.297 16.564 112.434 16.477C112.434 16.477 112.481 16.4462 112.571 16.378C112.72 16.268 112.811 16.1899 112.934 16.0612C113.026 15.9666 113.105 15.8555 113.165 15.729C113.251 15.5497 113.337 15.2076 113.372 14.9227C113.399 14.7049 113.391 14.5861 113.388 14.5124C113.383 14.3947 113.285 14.2726 113.179 14.2209L112.538 13.9338C112.538 13.9338 111.581 13.5169 110.996 13.2507C110.935 13.224 110.869 13.2087 110.803 13.2056C110.727 13.1979 110.651 13.2063 110.58 13.2304C110.508 13.2545 110.442 13.2937 110.387 13.3453C110.381 13.3431 110.308 13.4058 109.512 14.3694C109.467 14.4307 109.404 14.4771 109.332 14.5026C109.26 14.528 109.182 14.5314 109.107 14.5124C109.036 14.4932 108.966 14.4689 108.897 14.4398C108.761 14.3826 108.714 14.3606 108.62 14.321C107.989 14.0455 107.404 13.6733 106.888 13.2177C106.749 13.0967 106.62 12.9647 106.488 12.8371C106.056 12.4226 105.678 11.9538 105.366 11.4423L105.301 11.3378C105.255 11.2676 105.217 11.1918 105.189 11.1123C105.147 10.9506 105.256 10.8208 105.256 10.8208C105.256 10.8208 105.524 10.5282 105.648 10.3698C105.769 10.2158 105.871 10.0662 105.937 9.95949C106.067 9.75049 106.108 9.53599 106.04 9.36989C105.732 8.6175 105.413 7.8684 105.085 7.1248C105.02 6.9774 104.827 6.8718 104.652 6.8509C104.593 6.8443 104.534 6.8377 104.474 6.8333C104.327 6.82596 104.179 6.82743 104.031 6.8377L104.253 6.83Z" fill="#D6D5D4"/>
<path d="M140 1C137.824 1 135.698 1.64514 133.889 2.85383C132.08 4.06253 130.67 5.78049 129.837 7.79048C129.005 9.80047 128.787 12.0122 129.211 14.146C129.636 16.2798 130.683 18.2398 132.222 19.7782C133.76 21.3165 135.72 22.3642 137.854 22.7886C139.988 23.2131 142.2 22.9952 144.21 22.1627C146.22 21.3301 147.937 19.9202 149.146 18.1113C150.355 16.3023 151 14.1756 151 12C150.997 9.08351 149.837 6.28731 147.775 4.22504C145.713 2.16277 142.916 1.00291 140 1ZM146.533 9.4843V10.1949C146.533 10.2493 146.522 10.3031 146.501 10.3532C146.48 10.4033 146.449 10.4487 146.41 10.4867C146.371 10.5246 146.325 10.5543 146.274 10.5741C146.223 10.5939 146.169 10.6034 146.115 10.6019C144.954 10.5196 143.842 10.0955 142.922 9.3831V14.5839C142.921 15.1595 142.807 15.7293 142.584 16.2601C142.361 16.7908 142.034 17.2718 141.624 17.6749C141.209 18.0881 140.716 18.4147 140.174 18.6356C139.632 18.8566 139.052 18.9675 138.467 18.9619C137.29 18.9598 136.16 18.498 135.318 17.6749C134.783 17.1352 134.398 16.4655 134.2 15.7316C134.002 14.9978 133.998 14.225 134.19 13.4894C134.365 12.7832 134.718 12.1342 135.216 11.6051C135.588 11.1509 136.056 10.7855 136.587 10.5356C137.118 10.2857 137.698 10.1577 138.285 10.1608H139.187V12.0341C139.188 12.0885 139.176 12.1424 139.154 12.1921C139.132 12.2418 139.1 12.2863 139.059 12.3225C139.019 12.3587 138.971 12.3859 138.919 12.4022C138.867 12.4184 138.812 12.4235 138.758 12.4169C138.234 12.2596 137.67 12.3118 137.184 12.5624C136.698 12.8131 136.328 13.2427 136.153 13.7606C135.977 14.2785 136.01 14.8443 136.244 15.3388C136.477 15.8332 136.894 16.2176 137.405 16.411C137.702 16.5815 138.034 16.6816 138.375 16.7047C138.639 16.7157 138.903 16.6827 139.154 16.6035C139.573 16.4625 139.937 16.1942 140.196 15.8361C140.455 15.4779 140.596 15.0478 140.598 14.6059V5.1294C140.598 5.07745 140.608 5.02598 140.628 4.97794C140.648 4.9299 140.677 4.88624 140.714 4.84945C140.75 4.81267 140.794 4.78348 140.842 4.76356C140.89 4.74365 140.941 4.7334 140.993 4.7334H142.55C142.651 4.73326 142.748 4.77198 142.822 4.84158C142.895 4.91117 142.939 5.00633 142.945 5.1074C143.002 5.5927 143.156 6.06153 143.398 6.48585C143.64 6.91017 143.966 7.28125 144.355 7.5769C144.881 7.97168 145.505 8.21375 146.16 8.2765C146.258 8.28488 146.35 8.32851 146.418 8.39929C146.486 8.47007 146.527 8.56322 146.532 8.6615L146.533 9.4843Z" fill="#D6D5D4"/>
<path d="M173.772 12.2662C173.765 12.6146 173.655 12.9533 173.456 13.2392C173.256 13.5251 172.977 13.7454 172.652 13.8721C172.327 13.9989 171.972 14.0264 171.632 13.9511C171.292 13.8759 170.981 13.7013 170.74 13.4495C170.499 13.1977 170.339 12.8801 170.278 12.5368C170.218 12.1935 170.261 11.8401 170.402 11.5213C170.543 11.2025 170.775 10.9327 171.07 10.7461C171.364 10.5595 171.707 10.4645 172.056 10.4732C172.519 10.4903 172.957 10.6871 173.277 11.0219C173.597 11.3566 173.775 11.8029 173.772 12.2662Z" fill="#D6D5D4"/>
<path d="M175.039 6.75586H169.072C168.482 6.75586 167.915 6.99042 167.498 7.40795C167.08 7.82547 166.846 8.39176 166.846 8.98223V15.0839C166.846 15.3762 166.903 15.6657 167.015 15.9359C167.127 16.206 167.291 16.4514 167.498 16.6581C167.705 16.8649 167.95 17.0289 168.22 17.1408C168.49 17.2526 168.78 17.3102 169.072 17.3102H175.039C175.332 17.3102 175.621 17.2526 175.891 17.1408C176.162 17.0289 176.407 16.8649 176.614 16.6581C176.821 16.4514 176.985 16.206 177.096 15.9359C177.208 15.6657 177.266 15.3762 177.266 15.0839V8.99323C177.267 8.70002 177.21 8.40946 177.099 8.1382C176.988 7.86694 176.824 7.62033 176.617 7.41248C176.41 7.20463 176.164 7.03965 175.894 6.92697C175.623 6.81429 175.333 6.75615 175.039 6.75586ZM172.055 15.2511C171.465 15.2644 170.883 15.1014 170.386 14.7829C169.888 14.4644 169.496 14.0049 169.261 13.4629C169.026 12.9209 168.957 12.3211 169.064 11.74C169.171 11.1589 169.449 10.6228 169.862 10.2003C170.275 9.77771 170.804 9.48779 171.383 9.36753C171.961 9.24726 172.563 9.30209 173.11 9.52502C173.657 9.74795 174.126 10.1289 174.455 10.6192C174.785 11.1095 174.961 11.6869 174.961 12.2778C174.966 12.6639 174.894 13.047 174.751 13.4054C174.607 13.7638 174.394 14.0904 174.124 14.3665C173.854 14.6426 173.533 14.8629 173.178 15.0146C172.823 15.1664 172.441 15.2467 172.055 15.2511ZM175.285 9.30563C175.212 9.30564 175.14 9.29117 175.073 9.26307C175.007 9.23497 174.946 9.19379 174.895 9.14196C174.844 9.09012 174.804 9.02867 174.778 8.9612C174.751 8.89373 174.738 8.8216 174.739 8.74903C174.739 8.60142 174.798 8.45985 174.902 8.35546C175.007 8.25108 175.148 8.19244 175.296 8.19244C175.443 8.19244 175.585 8.25108 175.689 8.35546C175.794 8.45985 175.852 8.60142 175.852 8.74903C175.855 8.82761 175.84 8.90574 175.809 8.97806C175.778 9.05038 175.732 9.11518 175.674 9.16804C175.616 9.2209 175.547 9.26056 175.472 9.2843C175.397 9.30805 175.318 9.31533 175.24 9.30563H175.285Z" fill="#D6D5D4"/>
<path d="M172.055 1.00014C169.138 0.985551 166.334 2.13047 164.261 4.18303C162.188 6.23559 161.015 9.02766 161 11.945C160.986 14.8623 162.13 17.666 164.183 19.7392C166.236 21.8124 169.028 22.9853 171.945 22.9999C173.39 23.0071 174.821 22.7297 176.159 22.1836C177.496 21.6375 178.713 20.8333 179.739 19.817C180.766 18.8006 181.582 17.5921 182.142 16.2603C182.701 14.9285 182.993 13.4995 183 12.055C183.007 10.6105 182.73 9.17868 182.184 7.84135C181.637 6.50402 180.833 5.28735 179.817 4.26081C178.801 3.23427 177.592 2.41797 176.26 1.8585C174.928 1.29903 173.5 1.00736 172.055 1.00014ZM178.735 14.9722C178.738 15.4657 178.643 15.9548 178.456 16.4114C178.269 16.8679 177.992 17.2827 177.643 17.6317C177.295 17.9807 176.88 18.257 176.423 18.4445C175.967 18.6321 175.478 18.7271 174.984 18.7242H169.128C168.635 18.727 168.145 18.6319 167.689 18.4444C167.233 18.2568 166.818 17.9807 166.469 17.6318C166.12 17.283 165.844 16.8684 165.656 16.412C165.469 15.9557 165.373 15.4667 165.376 14.9733V9.11584C165.373 8.62235 165.468 8.13316 165.655 7.67662C165.843 7.22009 166.119 6.8053 166.468 6.45629C166.817 6.10728 167.231 5.831 167.688 5.64346C168.144 5.45593 168.633 5.36086 169.127 5.36378H174.984C175.478 5.36086 175.967 5.45589 176.423 5.64336C176.88 5.83083 177.294 6.10701 177.643 6.4559C177.992 6.80479 178.268 7.21946 178.456 7.67586C178.643 8.13227 178.738 8.62134 178.735 9.11474V14.9722Z" fill="#D6D5D4"/>
<path d="M204 1C197.925 1 193 5.92545 193 12C193 18.0746 197.925 23 204 23C210.075 23 215 18.0746 215 12C215 5.92545 210.075 1 204 1ZM209.286 9.29174C209.294 9.40714 209.294 9.52746 209.294 9.64531C209.294 13.2498 206.549 17.4018 201.532 17.4018C199.985 17.4018 198.552 16.9525 197.344 16.179C197.565 16.2036 197.776 16.2134 198.002 16.2134C199.278 16.2134 200.452 15.7812 201.387 15.0496C200.189 15.025 199.183 14.2393 198.839 13.1589C199.259 13.2203 199.637 13.2203 200.069 13.1098C199.452 12.9845 198.897 12.6494 198.5 12.1615C198.102 11.6736 197.885 11.0631 197.886 10.4335V10.3991C198.247 10.6029 198.672 10.7281 199.116 10.7453C198.743 10.4963 198.436 10.159 198.224 9.76324C198.012 9.36749 197.901 8.92553 197.901 8.47656C197.901 7.9683 198.033 7.50424 198.272 7.10156C198.956 7.94458 199.811 8.63405 200.78 9.12518C201.748 9.61631 202.81 9.8981 203.894 9.95223C203.509 8.09844 204.894 6.59821 206.558 6.59821C207.344 6.59821 208.051 6.92723 208.55 7.45759C209.166 7.34219 209.755 7.11138 210.281 6.80201C210.077 7.43304 209.65 7.96585 209.083 8.30223C209.633 8.2433 210.163 8.09107 210.654 7.87746C210.283 8.42254 209.819 8.90625 209.286 9.29174Z" fill="#D6D5D4"/>
<path d="M236.045 1C229.961 1 225.029 5.91975 225.029 11.9881C225.029 16.6438 227.931 20.6203 232.03 22.2199C231.933 21.35 231.847 20.0172 232.067 19.0675C232.269 18.2086 233.359 13.6069 233.359 13.6069C233.359 13.6069 233.029 12.9469 233.029 11.9743C233.029 10.4499 233.918 9.30592 235.022 9.30592C235.963 9.30592 236.417 10.0108 236.417 10.8532C236.417 11.7965 235.817 13.2063 235.505 14.5126C235.243 15.6062 236.056 16.4972 237.136 16.4972C239.092 16.4972 240.599 14.4392 240.599 11.4674C240.599 8.84483 238.703 7.00417 235.997 7.00417C232.863 7.00417 231.026 9.35267 231.026 11.7699C231.026 12.7168 231.388 13.7343 231.843 14.2825C231.934 14.3925 231.946 14.4888 231.921 14.5988C231.839 14.9425 231.652 15.6978 231.614 15.8482C231.566 16.0544 231.456 16.0966 231.246 15.9994C229.872 15.3669 229.01 13.3612 229.01 11.7406C229.01 8.27925 231.535 5.09292 236.288 5.09292C240.109 5.09292 243.081 7.81267 243.081 11.439C243.081 15.2294 240.685 18.2792 237.353 18.2792C236.237 18.2792 235.19 17.7026 234.819 17.0151L234.13 19.6258C233.883 20.5837 233.208 21.7817 232.754 22.5096C233.786 22.8258 234.873 23 236.016 23C242.087 23 247.029 18.0821 247.029 12.0119C247.029 5.94083 242.087 1.02383 236.016 1.02383L236.045 1Z" fill="#D6D5D4"/>
<path d="M265.748 10.9761C265.962 10.8214 266.065 10.5661 266.065 10.215C266.073 10.048 266.038 9.88348 265.965 9.73371C265.898 9.61339 265.8 9.51272 265.68 9.44152C265.555 9.36587 265.416 9.31579 265.272 9.2942C265.115 9.26473 264.955 9.25 264.798 9.25246H263.072V11.2094H264.941C265.262 11.2118 265.535 11.1333 265.748 10.9761ZM266.038 12.744C265.798 12.5598 265.476 12.469 265.076 12.469H263.067V14.777H265.036C265.221 14.777 265.39 14.7598 265.554 14.7254C265.71 14.695 265.858 14.635 265.992 14.5487C266.117 14.4676 266.217 14.3571 266.294 14.2147C266.367 14.0723 266.404 13.8906 266.404 13.6721C266.404 13.2375 266.281 12.9306 266.038 12.744ZM268 1C261.925 1 257 5.92545 257 12C257 18.0746 261.925 23 268 23C274.075 23 279 18.0746 279 12C279 5.92545 274.075 1 268 1ZM270.124 8.04442H273.522V8.87187H270.124V8.04442ZM268 14.8679C267.841 15.1696 267.614 15.4302 267.337 15.629C267.047 15.8304 266.726 15.9777 266.384 16.0636C266.027 16.1593 265.659 16.2064 265.289 16.2036H261.223V7.82835H265.176C265.577 7.82835 265.94 7.86518 266.271 7.93393C266.6 8.00268 266.88 8.12054 267.116 8.28013C267.349 8.43973 267.533 8.65335 267.664 8.91853C267.791 9.18125 267.858 9.51027 267.858 9.90067C267.858 10.323 267.762 10.6717 267.57 10.954C267.376 11.2364 267.096 11.4647 266.716 11.644C267.234 11.7913 267.615 12.054 267.865 12.4223C268.12 12.7955 268.246 13.2424 268.246 13.7679C268.246 14.1951 268.165 14.5609 268 14.8679ZM274.846 13.5714H270.465C270.465 14.0478 270.63 14.5045 270.878 14.75C271.128 14.9931 271.487 15.1158 271.956 15.1158C272.294 15.1158 272.582 15.0299 272.827 14.8605C273.07 14.6911 273.218 14.5118 273.272 14.3252H274.74C274.504 15.0545 274.146 15.575 273.66 15.8893C273.178 16.2036 272.589 16.3607 271.904 16.3607C271.425 16.3607 270.996 16.2821 270.61 16.1324C270.239 15.9875 269.905 15.7665 269.63 15.4817C269.359 15.1892 269.15 14.8452 269.014 14.4701C268.864 14.0551 268.791 13.6181 268.796 13.1786C268.796 12.7243 268.872 12.302 269.019 11.9092C269.301 11.1455 269.888 10.5342 270.637 10.2174C271.037 10.0504 271.467 9.96696 271.902 9.97187C272.417 9.97187 272.864 10.0701 273.252 10.2714C273.625 10.4637 273.95 10.7392 274.2 11.0768C274.448 11.4132 274.622 11.7962 274.733 12.2283C274.838 12.6531 274.875 13.1 274.846 13.5714ZM271.85 11.2241C271.585 11.2241 271.361 11.2708 271.19 11.3616C271.018 11.4525 270.875 11.5654 270.767 11.6955C270.664 11.8212 270.588 11.9666 270.544 12.1228C270.504 12.2529 270.477 12.3855 270.468 12.5205H273.181C273.142 12.0958 272.994 11.7815 272.798 11.5605C272.592 11.342 272.26 11.2241 271.85 11.2241Z" fill="#D6D5D4"/>
<path d="M299.793 0.794922C293.718 0.794922 288.793 5.71971 288.793 11.7949C288.793 17.8701 293.718 22.7949 299.793 22.7949C305.868 22.7949 310.793 17.8701 310.793 11.7949C310.793 5.71971 305.868 0.794922 299.793 0.794922ZM297.1 16.3542H294.873V9.18586H297.1V16.3542ZM295.973 8.30586C295.269 8.30586 294.814 7.80742 294.814 7.19096C294.814 6.5619 295.283 6.07836 296.001 6.07836C296.72 6.07836 297.16 6.5619 297.174 7.19096C297.174 7.80742 296.72 8.30586 295.973 8.30586ZM305.236 16.3542H303.008V12.3816C303.008 11.4569 302.685 10.829 301.88 10.829C301.264 10.829 300.899 11.2541 300.737 11.6632C300.678 11.8087 300.663 12.0149 300.663 12.22V16.353H298.434V11.4718C298.434 10.5769 298.405 9.82867 298.376 9.18471H300.311L300.413 10.1804H300.458C300.751 9.71294 301.469 9.02315 302.671 9.02315C304.137 9.02315 305.236 10.0051 305.236 12.1158V16.3542Z" fill="#D6D5D4"/>
</svg>
