<svg width="50" height="50" viewBox="0 0 50 50" fill="none" xmlns="http://www.w3.org/2000/svg">
<path fill-rule="evenodd" clip-rule="evenodd" d="M6.25 10.4167C6.25 9.3116 6.68899 8.25179 7.47039 7.47039C8.25179 6.68899 9.3116 6.25 10.4167 6.25H16.6667V16.6667H6.25V10.4167ZM16.6667 20.8333H6.25V39.5833C6.25 40.6884 6.68899 41.7482 7.47039 42.5296C8.25179 43.311 9.3116 43.75 10.4167 43.75H16.6667V20.8333ZM20.8333 43.75H39.5833C40.6884 43.75 41.7482 43.311 42.5296 42.5296C43.311 41.7482 43.75 40.6884 43.75 39.5833V20.8333H20.8333V43.75ZM20.8333 16.6667V6.25H39.5833C40.6884 6.25 41.7482 6.68899 42.5296 7.47039C43.311 8.25179 43.75 9.3116 43.75 10.4167V16.6667H20.8333Z" fill="#EF7D00"/>
</svg>
