<svg width="42" height="42" viewBox="0 0 42 42" fill="none" xmlns="http://www.w3.org/2000/svg">
<path d="M32.5837 0.166992H9.35449C4.29199 0.166992 0.166992 4.29199 0.166992 9.35449V22.8962V23.3128C0.166992 28.3962 4.29199 32.5003 9.35449 32.5003H17.3545C18.5003 32.5003 19.4378 33.4378 19.4378 34.5837V36.6045C19.4378 37.7503 18.5003 38.6878 17.3545 38.6878H12.3128C11.4587 38.6878 10.7503 39.3962 10.7503 40.2503C10.7503 41.1045 11.4378 41.8337 12.3128 41.8337H29.7087C30.5628 41.8337 31.2712 41.1253 31.2712 40.2712C31.2712 39.417 30.5628 38.7087 29.7087 38.7087H24.667C23.5212 38.7087 22.5837 37.7712 22.5837 36.6253V34.6045C22.5837 33.4587 23.5212 32.5212 24.667 32.5212H32.6045C37.6878 32.5212 41.792 28.3962 41.792 23.3337V22.917V9.37533C41.7712 4.29199 37.6462 0.166992 32.5837 0.166992Z" fill="#464440"/>
</svg>
