<svg width="24" height="24" viewBox="0 0 24 24" fill="none" xmlns="http://www.w3.org/2000/svg">
<path d="M12.002 1C18.0773 1 23.002 5.9247 23.002 12C23.002 18.0753 18.0773 23 12.002 23C10.058 23.0031 8.14829 22.4887 6.46897 21.5095L1.00637 23L2.49357 17.5352C1.51357 15.8554 0.998721 13.9448 1.00197 12C1.00197 5.9247 5.92667 1 12.002 1ZM8.25316 6.83L8.03316 6.8388C7.89074 6.84747 7.75154 6.88489 7.62396 6.9488C7.50464 7.01637 7.39571 7.10084 7.30056 7.1996C7.16856 7.3239 7.09376 7.4317 7.01346 7.5362C6.6066 8.06519 6.38754 8.71464 6.39087 9.38199C6.39306 9.92099 6.53386 10.4457 6.75386 10.9363C7.20376 11.9285 7.94406 12.979 8.92086 13.9525C9.15626 14.1868 9.38726 14.4222 9.63586 14.6411C10.8496 15.7097 12.2959 16.4803 13.8599 16.8917L14.4847 16.9874C14.6882 16.9984 14.8917 16.983 15.0963 16.9731C15.4166 16.9566 15.7294 16.8698 16.0126 16.719C16.1566 16.6448 16.2972 16.564 16.4339 16.477C16.4339 16.477 16.4812 16.4462 16.5714 16.378C16.7199 16.268 16.8112 16.1899 16.9344 16.0612C17.0257 15.9666 17.1049 15.8555 17.1654 15.729C17.2512 15.5497 17.337 15.2076 17.3722 14.9227C17.3986 14.7049 17.3909 14.5861 17.3876 14.5124C17.3832 14.3947 17.2853 14.2726 17.1786 14.2209L16.5384 13.9338C16.5384 13.9338 15.5814 13.5169 14.9962 13.2507C14.9349 13.224 14.8693 13.2087 14.8026 13.2056C14.7273 13.1979 14.6513 13.2063 14.5795 13.2304C14.5078 13.2545 14.4421 13.2937 14.3868 13.3453C14.3813 13.3431 14.3076 13.4058 13.5123 14.3694C13.4666 14.4307 13.4037 14.4771 13.3316 14.5026C13.2596 14.528 13.1815 14.5314 13.1075 14.5124C13.0358 14.4932 12.9656 14.4689 12.8974 14.4398C12.761 14.3826 12.7137 14.3606 12.6202 14.321C11.9888 14.0455 11.4043 13.6733 10.8877 13.2177C10.7491 13.0967 10.6204 12.9647 10.4884 12.8371C10.0556 12.4226 9.67846 11.9538 9.36636 11.4423L9.30146 11.3378C9.25485 11.2676 9.21716 11.1918 9.18926 11.1123C9.14746 10.9506 9.25636 10.8208 9.25636 10.8208C9.25636 10.8208 9.52366 10.5282 9.64796 10.3698C9.76896 10.2158 9.87126 10.0662 9.93726 9.95949C10.0671 9.75049 10.1078 9.53599 10.0396 9.36989C9.73156 8.6175 9.41256 7.8684 9.08476 7.1248C9.01986 6.9774 8.82736 6.8718 8.65246 6.8509C8.59306 6.8443 8.53366 6.8377 8.47426 6.8333C8.32654 6.82596 8.17851 6.82743 8.03096 6.8377L8.25316 6.83Z" fill="#D6D5D4"/>
</svg>
